M48
; DRILL file {KiCad (7.0.0)} date Tue Jun 13 12:49:35 2023
; FORMAT={-:-/ absolute / metric / decimal}
; #@! TF.CreationDate,2023-06-13T12:49:35+03:00
; #@! TF.GenerationSoftware,Kicad,Pcbnew,(7.0.0)
; #@! TF.FileFunction,Plated,1,2,PTH
FMAT,2
METRIC
; #@! TA.AperFunction,Plated,PTH,ComponentDrill
T1C1.000
; #@! TA.AperFunction,Plated,PTH,ComponentDrill
T2C1.300
%
G90
G05
T1
X141.162Y-78.35
X141.172Y-83.42
X141.172Y-85.97
X141.172Y-96.12
X141.183Y-80.89
X141.183Y-88.51
X141.183Y-93.58
X141.213Y-91.04
X163.982Y-86.0
X163.982Y-88.53
X163.992Y-80.9
X163.992Y-91.07
X163.992Y-96.11
X164.002Y-78.33
X164.002Y-93.56
X164.012Y-83.44
T2
X129.857Y-75.96
X129.857Y-79.46
X129.857Y-82.96
X129.938Y-89.85
X129.938Y-93.35
X129.938Y-96.85
X150.477Y-66.42
X153.977Y-66.42
X157.477Y-66.42
X172.987Y-75.27
X172.987Y-78.77
X172.987Y-82.27
X173.308Y-88.87
X173.308Y-92.37
X173.308Y-95.87
T0
M30
