%TF.GenerationSoftware,KiCad,Pcbnew,(7.0.0)*%
%TF.CreationDate,2023-06-13T12:49:34+03:00*%
%TF.ProjectId,C3 pico Breakout PCB,43332070-6963-46f2-9042-7265616b6f75,rev?*%
%TF.SameCoordinates,Original*%
%TF.FileFunction,Drillmap*%
%TF.FilePolarity,Positive*%
%FSLAX45Y45*%
G04 Gerber Fmt 4.5, Leading zero omitted, Abs format (unit mm)*
G04 Created by KiCad (PCBNEW (7.0.0)) date 2023-06-13 12:49:34*
%MOMM*%
%LPD*%
G01*
G04 APERTURE LIST*
%ADD10C,0.100000*%
%ADD11C,0.200000*%
%ADD12C,0.130000*%
G04 APERTURE END LIST*
D10*
X12422953Y-10502944D02*
X12422958Y-6536557D01*
X17495444Y-10934545D02*
G75*
G03*
X17926028Y-10502522I-1444J432025D01*
G01*
X12422955Y-10502944D02*
G75*
G03*
X12854978Y-10933528I432025J1444D01*
G01*
X12853542Y-6104531D02*
G75*
G03*
X12422958Y-6536557I1448J-432029D01*
G01*
X17928047Y-6544555D02*
X17926028Y-10502522D01*
X17495444Y-10934547D02*
X12854978Y-10933528D01*
X12853542Y-6104531D02*
X17500458Y-6113468D01*
X17928572Y-6544554D02*
G75*
G03*
X17500458Y-6113469I-432552J-1446D01*
G01*
D11*
D10*
X14066250Y-7785000D02*
X14166250Y-7885000D01*
X14166250Y-7785000D02*
X14066250Y-7885000D01*
X14067250Y-8292000D02*
X14167250Y-8392000D01*
X14167250Y-8292000D02*
X14067250Y-8392000D01*
X14067250Y-8547000D02*
X14167250Y-8647000D01*
X14167250Y-8547000D02*
X14067250Y-8647000D01*
X14067250Y-9562000D02*
X14167250Y-9662000D01*
X14167250Y-9562000D02*
X14067250Y-9662000D01*
X14068250Y-8039000D02*
X14168250Y-8139000D01*
X14168250Y-8039000D02*
X14068250Y-8139000D01*
X14068250Y-8801000D02*
X14168250Y-8901000D01*
X14168250Y-8801000D02*
X14068250Y-8901000D01*
X14068250Y-9308000D02*
X14168250Y-9408000D01*
X14168250Y-9308000D02*
X14068250Y-9408000D01*
X14071250Y-9054000D02*
X14171250Y-9154000D01*
X14171250Y-9054000D02*
X14071250Y-9154000D01*
X16348250Y-8550000D02*
X16448250Y-8650000D01*
X16448250Y-8550000D02*
X16348250Y-8650000D01*
X16348250Y-8803000D02*
X16448250Y-8903000D01*
X16448250Y-8803000D02*
X16348250Y-8903000D01*
X16349250Y-8040000D02*
X16449250Y-8140000D01*
X16449250Y-8040000D02*
X16349250Y-8140000D01*
X16349250Y-9057000D02*
X16449250Y-9157000D01*
X16449250Y-9057000D02*
X16349250Y-9157000D01*
X16349250Y-9561000D02*
X16449250Y-9661000D01*
X16449250Y-9561000D02*
X16349250Y-9661000D01*
X16350250Y-7783000D02*
X16450250Y-7883000D01*
X16450250Y-7783000D02*
X16350250Y-7883000D01*
X16350250Y-9306000D02*
X16450250Y-9406000D01*
X16450250Y-9306000D02*
X16350250Y-9406000D01*
X16351250Y-8294000D02*
X16451250Y-8394000D01*
X16451250Y-8294000D02*
X16351250Y-8394000D01*
D12*
X13050750Y-7596000D02*
G75*
G03*
X13050750Y-7596000I-65000J0D01*
G01*
X13050750Y-7946000D02*
G75*
G03*
X13050750Y-7946000I-65000J0D01*
G01*
X13050750Y-8296000D02*
G75*
G03*
X13050750Y-8296000I-65000J0D01*
G01*
X13058750Y-8985000D02*
G75*
G03*
X13058750Y-8985000I-65000J0D01*
G01*
X13058750Y-9335000D02*
G75*
G03*
X13058750Y-9335000I-65000J0D01*
G01*
X13058750Y-9685000D02*
G75*
G03*
X13058750Y-9685000I-65000J0D01*
G01*
X15112750Y-6642000D02*
G75*
G03*
X15112750Y-6642000I-65000J0D01*
G01*
X15462750Y-6642000D02*
G75*
G03*
X15462750Y-6642000I-65000J0D01*
G01*
X15812750Y-6642000D02*
G75*
G03*
X15812750Y-6642000I-65000J0D01*
G01*
X17363750Y-7527000D02*
G75*
G03*
X17363750Y-7527000I-65000J0D01*
G01*
X17363750Y-7877000D02*
G75*
G03*
X17363750Y-7877000I-65000J0D01*
G01*
X17363750Y-8227000D02*
G75*
G03*
X17363750Y-8227000I-65000J0D01*
G01*
X17395750Y-8887000D02*
G75*
G03*
X17395750Y-8887000I-65000J0D01*
G01*
X17395750Y-9237000D02*
G75*
G03*
X17395750Y-9237000I-65000J0D01*
G01*
X17395750Y-9587000D02*
G75*
G03*
X17395750Y-9587000I-65000J0D01*
G01*
D11*
X12665572Y-11233023D02*
X12665572Y-11033023D01*
X12665572Y-11033023D02*
X12713191Y-11033023D01*
X12713191Y-11033023D02*
X12741763Y-11042547D01*
X12741763Y-11042547D02*
X12760810Y-11061594D01*
X12760810Y-11061594D02*
X12770334Y-11080642D01*
X12770334Y-11080642D02*
X12779858Y-11118737D01*
X12779858Y-11118737D02*
X12779858Y-11147309D01*
X12779858Y-11147309D02*
X12770334Y-11185404D01*
X12770334Y-11185404D02*
X12760810Y-11204451D01*
X12760810Y-11204451D02*
X12741763Y-11223499D01*
X12741763Y-11223499D02*
X12713191Y-11233023D01*
X12713191Y-11233023D02*
X12665572Y-11233023D01*
X12865572Y-11233023D02*
X12865572Y-11099689D01*
X12865572Y-11137785D02*
X12875096Y-11118737D01*
X12875096Y-11118737D02*
X12884620Y-11109213D01*
X12884620Y-11109213D02*
X12903668Y-11099689D01*
X12903668Y-11099689D02*
X12922715Y-11099689D01*
X12989382Y-11233023D02*
X12989382Y-11099689D01*
X12989382Y-11033023D02*
X12979858Y-11042547D01*
X12979858Y-11042547D02*
X12989382Y-11052070D01*
X12989382Y-11052070D02*
X12998906Y-11042547D01*
X12998906Y-11042547D02*
X12989382Y-11033023D01*
X12989382Y-11033023D02*
X12989382Y-11052070D01*
X13113191Y-11233023D02*
X13094144Y-11223499D01*
X13094144Y-11223499D02*
X13084620Y-11204451D01*
X13084620Y-11204451D02*
X13084620Y-11033023D01*
X13217953Y-11233023D02*
X13198906Y-11223499D01*
X13198906Y-11223499D02*
X13189382Y-11204451D01*
X13189382Y-11204451D02*
X13189382Y-11033023D01*
X13414144Y-11233023D02*
X13414144Y-11033023D01*
X13414144Y-11033023D02*
X13480810Y-11175880D01*
X13480810Y-11175880D02*
X13547477Y-11033023D01*
X13547477Y-11033023D02*
X13547477Y-11233023D01*
X13728429Y-11233023D02*
X13728429Y-11128261D01*
X13728429Y-11128261D02*
X13718906Y-11109213D01*
X13718906Y-11109213D02*
X13699858Y-11099689D01*
X13699858Y-11099689D02*
X13661763Y-11099689D01*
X13661763Y-11099689D02*
X13642715Y-11109213D01*
X13728429Y-11223499D02*
X13709382Y-11233023D01*
X13709382Y-11233023D02*
X13661763Y-11233023D01*
X13661763Y-11233023D02*
X13642715Y-11223499D01*
X13642715Y-11223499D02*
X13633191Y-11204451D01*
X13633191Y-11204451D02*
X13633191Y-11185404D01*
X13633191Y-11185404D02*
X13642715Y-11166356D01*
X13642715Y-11166356D02*
X13661763Y-11156832D01*
X13661763Y-11156832D02*
X13709382Y-11156832D01*
X13709382Y-11156832D02*
X13728429Y-11147309D01*
X13823668Y-11099689D02*
X13823668Y-11299689D01*
X13823668Y-11109213D02*
X13842715Y-11099689D01*
X13842715Y-11099689D02*
X13880810Y-11099689D01*
X13880810Y-11099689D02*
X13899858Y-11109213D01*
X13899858Y-11109213D02*
X13909382Y-11118737D01*
X13909382Y-11118737D02*
X13918906Y-11137785D01*
X13918906Y-11137785D02*
X13918906Y-11194927D01*
X13918906Y-11194927D02*
X13909382Y-11213975D01*
X13909382Y-11213975D02*
X13899858Y-11223499D01*
X13899858Y-11223499D02*
X13880810Y-11233023D01*
X13880810Y-11233023D02*
X13842715Y-11233023D01*
X13842715Y-11233023D02*
X13823668Y-11223499D01*
X14004620Y-11213975D02*
X14014144Y-11223499D01*
X14014144Y-11223499D02*
X14004620Y-11233023D01*
X14004620Y-11233023D02*
X13995096Y-11223499D01*
X13995096Y-11223499D02*
X14004620Y-11213975D01*
X14004620Y-11213975D02*
X14004620Y-11233023D01*
X14004620Y-11109213D02*
X14014144Y-11118737D01*
X14014144Y-11118737D02*
X14004620Y-11128261D01*
X14004620Y-11128261D02*
X13995096Y-11118737D01*
X13995096Y-11118737D02*
X14004620Y-11109213D01*
X14004620Y-11109213D02*
X14004620Y-11128261D01*
D10*
X12317953Y-11529547D02*
X12417953Y-11629547D01*
X12417953Y-11529547D02*
X12317953Y-11629547D01*
D11*
X12770334Y-11653023D02*
X12656049Y-11653023D01*
X12713191Y-11653023D02*
X12713191Y-11453023D01*
X12713191Y-11453023D02*
X12694144Y-11481594D01*
X12694144Y-11481594D02*
X12675096Y-11500642D01*
X12675096Y-11500642D02*
X12656049Y-11510166D01*
X12856049Y-11633975D02*
X12865572Y-11643499D01*
X12865572Y-11643499D02*
X12856049Y-11653023D01*
X12856049Y-11653023D02*
X12846525Y-11643499D01*
X12846525Y-11643499D02*
X12856049Y-11633975D01*
X12856049Y-11633975D02*
X12856049Y-11653023D01*
X12989382Y-11453023D02*
X13008430Y-11453023D01*
X13008430Y-11453023D02*
X13027477Y-11462547D01*
X13027477Y-11462547D02*
X13037001Y-11472070D01*
X13037001Y-11472070D02*
X13046525Y-11491118D01*
X13046525Y-11491118D02*
X13056049Y-11529213D01*
X13056049Y-11529213D02*
X13056049Y-11576832D01*
X13056049Y-11576832D02*
X13046525Y-11614927D01*
X13046525Y-11614927D02*
X13037001Y-11633975D01*
X13037001Y-11633975D02*
X13027477Y-11643499D01*
X13027477Y-11643499D02*
X13008430Y-11653023D01*
X13008430Y-11653023D02*
X12989382Y-11653023D01*
X12989382Y-11653023D02*
X12970334Y-11643499D01*
X12970334Y-11643499D02*
X12960810Y-11633975D01*
X12960810Y-11633975D02*
X12951287Y-11614927D01*
X12951287Y-11614927D02*
X12941763Y-11576832D01*
X12941763Y-11576832D02*
X12941763Y-11529213D01*
X12941763Y-11529213D02*
X12951287Y-11491118D01*
X12951287Y-11491118D02*
X12960810Y-11472070D01*
X12960810Y-11472070D02*
X12970334Y-11462547D01*
X12970334Y-11462547D02*
X12989382Y-11453023D01*
X13179858Y-11453023D02*
X13198906Y-11453023D01*
X13198906Y-11453023D02*
X13217953Y-11462547D01*
X13217953Y-11462547D02*
X13227477Y-11472070D01*
X13227477Y-11472070D02*
X13237001Y-11491118D01*
X13237001Y-11491118D02*
X13246525Y-11529213D01*
X13246525Y-11529213D02*
X13246525Y-11576832D01*
X13246525Y-11576832D02*
X13237001Y-11614927D01*
X13237001Y-11614927D02*
X13227477Y-11633975D01*
X13227477Y-11633975D02*
X13217953Y-11643499D01*
X13217953Y-11643499D02*
X13198906Y-11653023D01*
X13198906Y-11653023D02*
X13179858Y-11653023D01*
X13179858Y-11653023D02*
X13160810Y-11643499D01*
X13160810Y-11643499D02*
X13151287Y-11633975D01*
X13151287Y-11633975D02*
X13141763Y-11614927D01*
X13141763Y-11614927D02*
X13132239Y-11576832D01*
X13132239Y-11576832D02*
X13132239Y-11529213D01*
X13132239Y-11529213D02*
X13141763Y-11491118D01*
X13141763Y-11491118D02*
X13151287Y-11472070D01*
X13151287Y-11472070D02*
X13160810Y-11462547D01*
X13160810Y-11462547D02*
X13179858Y-11453023D01*
X13370334Y-11453023D02*
X13389382Y-11453023D01*
X13389382Y-11453023D02*
X13408430Y-11462547D01*
X13408430Y-11462547D02*
X13417953Y-11472070D01*
X13417953Y-11472070D02*
X13427477Y-11491118D01*
X13427477Y-11491118D02*
X13437001Y-11529213D01*
X13437001Y-11529213D02*
X13437001Y-11576832D01*
X13437001Y-11576832D02*
X13427477Y-11614927D01*
X13427477Y-11614927D02*
X13417953Y-11633975D01*
X13417953Y-11633975D02*
X13408430Y-11643499D01*
X13408430Y-11643499D02*
X13389382Y-11653023D01*
X13389382Y-11653023D02*
X13370334Y-11653023D01*
X13370334Y-11653023D02*
X13351287Y-11643499D01*
X13351287Y-11643499D02*
X13341763Y-11633975D01*
X13341763Y-11633975D02*
X13332239Y-11614927D01*
X13332239Y-11614927D02*
X13322715Y-11576832D01*
X13322715Y-11576832D02*
X13322715Y-11529213D01*
X13322715Y-11529213D02*
X13332239Y-11491118D01*
X13332239Y-11491118D02*
X13341763Y-11472070D01*
X13341763Y-11472070D02*
X13351287Y-11462547D01*
X13351287Y-11462547D02*
X13370334Y-11453023D01*
X13522715Y-11653023D02*
X13522715Y-11519689D01*
X13522715Y-11538737D02*
X13532239Y-11529213D01*
X13532239Y-11529213D02*
X13551287Y-11519689D01*
X13551287Y-11519689D02*
X13579858Y-11519689D01*
X13579858Y-11519689D02*
X13598906Y-11529213D01*
X13598906Y-11529213D02*
X13608430Y-11548261D01*
X13608430Y-11548261D02*
X13608430Y-11653023D01*
X13608430Y-11548261D02*
X13617953Y-11529213D01*
X13617953Y-11529213D02*
X13637001Y-11519689D01*
X13637001Y-11519689D02*
X13665572Y-11519689D01*
X13665572Y-11519689D02*
X13684620Y-11529213D01*
X13684620Y-11529213D02*
X13694144Y-11548261D01*
X13694144Y-11548261D02*
X13694144Y-11653023D01*
X13789382Y-11653023D02*
X13789382Y-11519689D01*
X13789382Y-11538737D02*
X13798906Y-11529213D01*
X13798906Y-11529213D02*
X13817953Y-11519689D01*
X13817953Y-11519689D02*
X13846525Y-11519689D01*
X13846525Y-11519689D02*
X13865572Y-11529213D01*
X13865572Y-11529213D02*
X13875096Y-11548261D01*
X13875096Y-11548261D02*
X13875096Y-11653023D01*
X13875096Y-11548261D02*
X13884620Y-11529213D01*
X13884620Y-11529213D02*
X13903668Y-11519689D01*
X13903668Y-11519689D02*
X13932239Y-11519689D01*
X13932239Y-11519689D02*
X13951287Y-11529213D01*
X13951287Y-11529213D02*
X13960811Y-11548261D01*
X13960811Y-11548261D02*
X13960811Y-11653023D01*
X14318906Y-11443499D02*
X14147477Y-11700642D01*
X14543668Y-11453023D02*
X14562715Y-11453023D01*
X14562715Y-11453023D02*
X14581763Y-11462547D01*
X14581763Y-11462547D02*
X14591287Y-11472070D01*
X14591287Y-11472070D02*
X14600811Y-11491118D01*
X14600811Y-11491118D02*
X14610334Y-11529213D01*
X14610334Y-11529213D02*
X14610334Y-11576832D01*
X14610334Y-11576832D02*
X14600811Y-11614927D01*
X14600811Y-11614927D02*
X14591287Y-11633975D01*
X14591287Y-11633975D02*
X14581763Y-11643499D01*
X14581763Y-11643499D02*
X14562715Y-11653023D01*
X14562715Y-11653023D02*
X14543668Y-11653023D01*
X14543668Y-11653023D02*
X14524620Y-11643499D01*
X14524620Y-11643499D02*
X14515096Y-11633975D01*
X14515096Y-11633975D02*
X14505572Y-11614927D01*
X14505572Y-11614927D02*
X14496049Y-11576832D01*
X14496049Y-11576832D02*
X14496049Y-11529213D01*
X14496049Y-11529213D02*
X14505572Y-11491118D01*
X14505572Y-11491118D02*
X14515096Y-11472070D01*
X14515096Y-11472070D02*
X14524620Y-11462547D01*
X14524620Y-11462547D02*
X14543668Y-11453023D01*
X14696049Y-11633975D02*
X14705572Y-11643499D01*
X14705572Y-11643499D02*
X14696049Y-11653023D01*
X14696049Y-11653023D02*
X14686525Y-11643499D01*
X14686525Y-11643499D02*
X14696049Y-11633975D01*
X14696049Y-11633975D02*
X14696049Y-11653023D01*
X14829382Y-11453023D02*
X14848430Y-11453023D01*
X14848430Y-11453023D02*
X14867477Y-11462547D01*
X14867477Y-11462547D02*
X14877001Y-11472070D01*
X14877001Y-11472070D02*
X14886525Y-11491118D01*
X14886525Y-11491118D02*
X14896049Y-11529213D01*
X14896049Y-11529213D02*
X14896049Y-11576832D01*
X14896049Y-11576832D02*
X14886525Y-11614927D01*
X14886525Y-11614927D02*
X14877001Y-11633975D01*
X14877001Y-11633975D02*
X14867477Y-11643499D01*
X14867477Y-11643499D02*
X14848430Y-11653023D01*
X14848430Y-11653023D02*
X14829382Y-11653023D01*
X14829382Y-11653023D02*
X14810334Y-11643499D01*
X14810334Y-11643499D02*
X14800811Y-11633975D01*
X14800811Y-11633975D02*
X14791287Y-11614927D01*
X14791287Y-11614927D02*
X14781763Y-11576832D01*
X14781763Y-11576832D02*
X14781763Y-11529213D01*
X14781763Y-11529213D02*
X14791287Y-11491118D01*
X14791287Y-11491118D02*
X14800811Y-11472070D01*
X14800811Y-11472070D02*
X14810334Y-11462547D01*
X14810334Y-11462547D02*
X14829382Y-11453023D01*
X14962715Y-11453023D02*
X15086525Y-11453023D01*
X15086525Y-11453023D02*
X15019858Y-11529213D01*
X15019858Y-11529213D02*
X15048430Y-11529213D01*
X15048430Y-11529213D02*
X15067477Y-11538737D01*
X15067477Y-11538737D02*
X15077001Y-11548261D01*
X15077001Y-11548261D02*
X15086525Y-11567308D01*
X15086525Y-11567308D02*
X15086525Y-11614927D01*
X15086525Y-11614927D02*
X15077001Y-11633975D01*
X15077001Y-11633975D02*
X15067477Y-11643499D01*
X15067477Y-11643499D02*
X15048430Y-11653023D01*
X15048430Y-11653023D02*
X14991287Y-11653023D01*
X14991287Y-11653023D02*
X14972239Y-11643499D01*
X14972239Y-11643499D02*
X14962715Y-11633975D01*
X15181763Y-11653023D02*
X15219858Y-11653023D01*
X15219858Y-11653023D02*
X15238906Y-11643499D01*
X15238906Y-11643499D02*
X15248430Y-11633975D01*
X15248430Y-11633975D02*
X15267477Y-11605404D01*
X15267477Y-11605404D02*
X15277001Y-11567308D01*
X15277001Y-11567308D02*
X15277001Y-11491118D01*
X15277001Y-11491118D02*
X15267477Y-11472070D01*
X15267477Y-11472070D02*
X15257953Y-11462547D01*
X15257953Y-11462547D02*
X15238906Y-11453023D01*
X15238906Y-11453023D02*
X15200811Y-11453023D01*
X15200811Y-11453023D02*
X15181763Y-11462547D01*
X15181763Y-11462547D02*
X15172239Y-11472070D01*
X15172239Y-11472070D02*
X15162715Y-11491118D01*
X15162715Y-11491118D02*
X15162715Y-11538737D01*
X15162715Y-11538737D02*
X15172239Y-11557785D01*
X15172239Y-11557785D02*
X15181763Y-11567308D01*
X15181763Y-11567308D02*
X15200811Y-11576832D01*
X15200811Y-11576832D02*
X15238906Y-11576832D01*
X15238906Y-11576832D02*
X15257953Y-11567308D01*
X15257953Y-11567308D02*
X15267477Y-11557785D01*
X15267477Y-11557785D02*
X15277001Y-11538737D01*
X15448430Y-11519689D02*
X15448430Y-11653023D01*
X15400811Y-11443499D02*
X15353192Y-11586356D01*
X15353192Y-11586356D02*
X15477001Y-11586356D01*
X15543668Y-11453023D02*
X15543668Y-11491118D01*
X15619858Y-11453023D02*
X15619858Y-11491118D01*
X15882715Y-11729213D02*
X15873192Y-11719689D01*
X15873192Y-11719689D02*
X15854144Y-11691118D01*
X15854144Y-11691118D02*
X15844620Y-11672070D01*
X15844620Y-11672070D02*
X15835096Y-11643499D01*
X15835096Y-11643499D02*
X15825573Y-11595880D01*
X15825573Y-11595880D02*
X15825573Y-11557785D01*
X15825573Y-11557785D02*
X15835096Y-11510166D01*
X15835096Y-11510166D02*
X15844620Y-11481594D01*
X15844620Y-11481594D02*
X15854144Y-11462547D01*
X15854144Y-11462547D02*
X15873192Y-11433975D01*
X15873192Y-11433975D02*
X15882715Y-11424451D01*
X16063668Y-11653023D02*
X15949382Y-11653023D01*
X16006525Y-11653023D02*
X16006525Y-11453023D01*
X16006525Y-11453023D02*
X15987477Y-11481594D01*
X15987477Y-11481594D02*
X15968430Y-11500642D01*
X15968430Y-11500642D02*
X15949382Y-11510166D01*
X16235096Y-11453023D02*
X16197001Y-11453023D01*
X16197001Y-11453023D02*
X16177953Y-11462547D01*
X16177953Y-11462547D02*
X16168430Y-11472070D01*
X16168430Y-11472070D02*
X16149382Y-11500642D01*
X16149382Y-11500642D02*
X16139858Y-11538737D01*
X16139858Y-11538737D02*
X16139858Y-11614927D01*
X16139858Y-11614927D02*
X16149382Y-11633975D01*
X16149382Y-11633975D02*
X16158906Y-11643499D01*
X16158906Y-11643499D02*
X16177953Y-11653023D01*
X16177953Y-11653023D02*
X16216049Y-11653023D01*
X16216049Y-11653023D02*
X16235096Y-11643499D01*
X16235096Y-11643499D02*
X16244620Y-11633975D01*
X16244620Y-11633975D02*
X16254144Y-11614927D01*
X16254144Y-11614927D02*
X16254144Y-11567308D01*
X16254144Y-11567308D02*
X16244620Y-11548261D01*
X16244620Y-11548261D02*
X16235096Y-11538737D01*
X16235096Y-11538737D02*
X16216049Y-11529213D01*
X16216049Y-11529213D02*
X16177953Y-11529213D01*
X16177953Y-11529213D02*
X16158906Y-11538737D01*
X16158906Y-11538737D02*
X16149382Y-11548261D01*
X16149382Y-11548261D02*
X16139858Y-11567308D01*
X16459858Y-11653023D02*
X16459858Y-11453023D01*
X16545573Y-11653023D02*
X16545573Y-11548261D01*
X16545573Y-11548261D02*
X16536049Y-11529213D01*
X16536049Y-11529213D02*
X16517001Y-11519689D01*
X16517001Y-11519689D02*
X16488430Y-11519689D01*
X16488430Y-11519689D02*
X16469382Y-11529213D01*
X16469382Y-11529213D02*
X16459858Y-11538737D01*
X16669382Y-11653023D02*
X16650334Y-11643499D01*
X16650334Y-11643499D02*
X16640811Y-11633975D01*
X16640811Y-11633975D02*
X16631287Y-11614927D01*
X16631287Y-11614927D02*
X16631287Y-11557785D01*
X16631287Y-11557785D02*
X16640811Y-11538737D01*
X16640811Y-11538737D02*
X16650334Y-11529213D01*
X16650334Y-11529213D02*
X16669382Y-11519689D01*
X16669382Y-11519689D02*
X16697954Y-11519689D01*
X16697954Y-11519689D02*
X16717001Y-11529213D01*
X16717001Y-11529213D02*
X16726525Y-11538737D01*
X16726525Y-11538737D02*
X16736049Y-11557785D01*
X16736049Y-11557785D02*
X16736049Y-11614927D01*
X16736049Y-11614927D02*
X16726525Y-11633975D01*
X16726525Y-11633975D02*
X16717001Y-11643499D01*
X16717001Y-11643499D02*
X16697954Y-11653023D01*
X16697954Y-11653023D02*
X16669382Y-11653023D01*
X16850335Y-11653023D02*
X16831287Y-11643499D01*
X16831287Y-11643499D02*
X16821763Y-11624451D01*
X16821763Y-11624451D02*
X16821763Y-11453023D01*
X17002716Y-11643499D02*
X16983668Y-11653023D01*
X16983668Y-11653023D02*
X16945573Y-11653023D01*
X16945573Y-11653023D02*
X16926525Y-11643499D01*
X16926525Y-11643499D02*
X16917001Y-11624451D01*
X16917001Y-11624451D02*
X16917001Y-11548261D01*
X16917001Y-11548261D02*
X16926525Y-11529213D01*
X16926525Y-11529213D02*
X16945573Y-11519689D01*
X16945573Y-11519689D02*
X16983668Y-11519689D01*
X16983668Y-11519689D02*
X17002716Y-11529213D01*
X17002716Y-11529213D02*
X17012239Y-11548261D01*
X17012239Y-11548261D02*
X17012239Y-11567308D01*
X17012239Y-11567308D02*
X16917001Y-11586356D01*
X17088430Y-11643499D02*
X17107477Y-11653023D01*
X17107477Y-11653023D02*
X17145573Y-11653023D01*
X17145573Y-11653023D02*
X17164620Y-11643499D01*
X17164620Y-11643499D02*
X17174144Y-11624451D01*
X17174144Y-11624451D02*
X17174144Y-11614927D01*
X17174144Y-11614927D02*
X17164620Y-11595880D01*
X17164620Y-11595880D02*
X17145573Y-11586356D01*
X17145573Y-11586356D02*
X17117001Y-11586356D01*
X17117001Y-11586356D02*
X17097954Y-11576832D01*
X17097954Y-11576832D02*
X17088430Y-11557785D01*
X17088430Y-11557785D02*
X17088430Y-11548261D01*
X17088430Y-11548261D02*
X17097954Y-11529213D01*
X17097954Y-11529213D02*
X17117001Y-11519689D01*
X17117001Y-11519689D02*
X17145573Y-11519689D01*
X17145573Y-11519689D02*
X17164620Y-11529213D01*
X17240811Y-11729213D02*
X17250335Y-11719689D01*
X17250335Y-11719689D02*
X17269382Y-11691118D01*
X17269382Y-11691118D02*
X17278906Y-11672070D01*
X17278906Y-11672070D02*
X17288430Y-11643499D01*
X17288430Y-11643499D02*
X17297954Y-11595880D01*
X17297954Y-11595880D02*
X17297954Y-11557785D01*
X17297954Y-11557785D02*
X17288430Y-11510166D01*
X17288430Y-11510166D02*
X17278906Y-11481594D01*
X17278906Y-11481594D02*
X17269382Y-11462547D01*
X17269382Y-11462547D02*
X17250335Y-11433975D01*
X17250335Y-11433975D02*
X17240811Y-11424451D01*
D12*
X12417953Y-11843547D02*
G75*
G03*
X12417953Y-11843547I-65000J0D01*
G01*
D11*
X12770334Y-11917023D02*
X12656049Y-11917023D01*
X12713191Y-11917023D02*
X12713191Y-11717023D01*
X12713191Y-11717023D02*
X12694144Y-11745594D01*
X12694144Y-11745594D02*
X12675096Y-11764642D01*
X12675096Y-11764642D02*
X12656049Y-11774166D01*
X12856049Y-11897975D02*
X12865572Y-11907499D01*
X12865572Y-11907499D02*
X12856049Y-11917023D01*
X12856049Y-11917023D02*
X12846525Y-11907499D01*
X12846525Y-11907499D02*
X12856049Y-11897975D01*
X12856049Y-11897975D02*
X12856049Y-11917023D01*
X12932239Y-11717023D02*
X13056049Y-11717023D01*
X13056049Y-11717023D02*
X12989382Y-11793213D01*
X12989382Y-11793213D02*
X13017953Y-11793213D01*
X13017953Y-11793213D02*
X13037001Y-11802737D01*
X13037001Y-11802737D02*
X13046525Y-11812261D01*
X13046525Y-11812261D02*
X13056049Y-11831308D01*
X13056049Y-11831308D02*
X13056049Y-11878927D01*
X13056049Y-11878927D02*
X13046525Y-11897975D01*
X13046525Y-11897975D02*
X13037001Y-11907499D01*
X13037001Y-11907499D02*
X13017953Y-11917023D01*
X13017953Y-11917023D02*
X12960810Y-11917023D01*
X12960810Y-11917023D02*
X12941763Y-11907499D01*
X12941763Y-11907499D02*
X12932239Y-11897975D01*
X13179858Y-11717023D02*
X13198906Y-11717023D01*
X13198906Y-11717023D02*
X13217953Y-11726547D01*
X13217953Y-11726547D02*
X13227477Y-11736070D01*
X13227477Y-11736070D02*
X13237001Y-11755118D01*
X13237001Y-11755118D02*
X13246525Y-11793213D01*
X13246525Y-11793213D02*
X13246525Y-11840832D01*
X13246525Y-11840832D02*
X13237001Y-11878927D01*
X13237001Y-11878927D02*
X13227477Y-11897975D01*
X13227477Y-11897975D02*
X13217953Y-11907499D01*
X13217953Y-11907499D02*
X13198906Y-11917023D01*
X13198906Y-11917023D02*
X13179858Y-11917023D01*
X13179858Y-11917023D02*
X13160810Y-11907499D01*
X13160810Y-11907499D02*
X13151287Y-11897975D01*
X13151287Y-11897975D02*
X13141763Y-11878927D01*
X13141763Y-11878927D02*
X13132239Y-11840832D01*
X13132239Y-11840832D02*
X13132239Y-11793213D01*
X13132239Y-11793213D02*
X13141763Y-11755118D01*
X13141763Y-11755118D02*
X13151287Y-11736070D01*
X13151287Y-11736070D02*
X13160810Y-11726547D01*
X13160810Y-11726547D02*
X13179858Y-11717023D01*
X13370334Y-11717023D02*
X13389382Y-11717023D01*
X13389382Y-11717023D02*
X13408430Y-11726547D01*
X13408430Y-11726547D02*
X13417953Y-11736070D01*
X13417953Y-11736070D02*
X13427477Y-11755118D01*
X13427477Y-11755118D02*
X13437001Y-11793213D01*
X13437001Y-11793213D02*
X13437001Y-11840832D01*
X13437001Y-11840832D02*
X13427477Y-11878927D01*
X13427477Y-11878927D02*
X13417953Y-11897975D01*
X13417953Y-11897975D02*
X13408430Y-11907499D01*
X13408430Y-11907499D02*
X13389382Y-11917023D01*
X13389382Y-11917023D02*
X13370334Y-11917023D01*
X13370334Y-11917023D02*
X13351287Y-11907499D01*
X13351287Y-11907499D02*
X13341763Y-11897975D01*
X13341763Y-11897975D02*
X13332239Y-11878927D01*
X13332239Y-11878927D02*
X13322715Y-11840832D01*
X13322715Y-11840832D02*
X13322715Y-11793213D01*
X13322715Y-11793213D02*
X13332239Y-11755118D01*
X13332239Y-11755118D02*
X13341763Y-11736070D01*
X13341763Y-11736070D02*
X13351287Y-11726547D01*
X13351287Y-11726547D02*
X13370334Y-11717023D01*
X13522715Y-11917023D02*
X13522715Y-11783689D01*
X13522715Y-11802737D02*
X13532239Y-11793213D01*
X13532239Y-11793213D02*
X13551287Y-11783689D01*
X13551287Y-11783689D02*
X13579858Y-11783689D01*
X13579858Y-11783689D02*
X13598906Y-11793213D01*
X13598906Y-11793213D02*
X13608430Y-11812261D01*
X13608430Y-11812261D02*
X13608430Y-11917023D01*
X13608430Y-11812261D02*
X13617953Y-11793213D01*
X13617953Y-11793213D02*
X13637001Y-11783689D01*
X13637001Y-11783689D02*
X13665572Y-11783689D01*
X13665572Y-11783689D02*
X13684620Y-11793213D01*
X13684620Y-11793213D02*
X13694144Y-11812261D01*
X13694144Y-11812261D02*
X13694144Y-11917023D01*
X13789382Y-11917023D02*
X13789382Y-11783689D01*
X13789382Y-11802737D02*
X13798906Y-11793213D01*
X13798906Y-11793213D02*
X13817953Y-11783689D01*
X13817953Y-11783689D02*
X13846525Y-11783689D01*
X13846525Y-11783689D02*
X13865572Y-11793213D01*
X13865572Y-11793213D02*
X13875096Y-11812261D01*
X13875096Y-11812261D02*
X13875096Y-11917023D01*
X13875096Y-11812261D02*
X13884620Y-11793213D01*
X13884620Y-11793213D02*
X13903668Y-11783689D01*
X13903668Y-11783689D02*
X13932239Y-11783689D01*
X13932239Y-11783689D02*
X13951287Y-11793213D01*
X13951287Y-11793213D02*
X13960811Y-11812261D01*
X13960811Y-11812261D02*
X13960811Y-11917023D01*
X14318906Y-11707499D02*
X14147477Y-11964642D01*
X14543668Y-11717023D02*
X14562715Y-11717023D01*
X14562715Y-11717023D02*
X14581763Y-11726547D01*
X14581763Y-11726547D02*
X14591287Y-11736070D01*
X14591287Y-11736070D02*
X14600811Y-11755118D01*
X14600811Y-11755118D02*
X14610334Y-11793213D01*
X14610334Y-11793213D02*
X14610334Y-11840832D01*
X14610334Y-11840832D02*
X14600811Y-11878927D01*
X14600811Y-11878927D02*
X14591287Y-11897975D01*
X14591287Y-11897975D02*
X14581763Y-11907499D01*
X14581763Y-11907499D02*
X14562715Y-11917023D01*
X14562715Y-11917023D02*
X14543668Y-11917023D01*
X14543668Y-11917023D02*
X14524620Y-11907499D01*
X14524620Y-11907499D02*
X14515096Y-11897975D01*
X14515096Y-11897975D02*
X14505572Y-11878927D01*
X14505572Y-11878927D02*
X14496049Y-11840832D01*
X14496049Y-11840832D02*
X14496049Y-11793213D01*
X14496049Y-11793213D02*
X14505572Y-11755118D01*
X14505572Y-11755118D02*
X14515096Y-11736070D01*
X14515096Y-11736070D02*
X14524620Y-11726547D01*
X14524620Y-11726547D02*
X14543668Y-11717023D01*
X14696049Y-11897975D02*
X14705572Y-11907499D01*
X14705572Y-11907499D02*
X14696049Y-11917023D01*
X14696049Y-11917023D02*
X14686525Y-11907499D01*
X14686525Y-11907499D02*
X14696049Y-11897975D01*
X14696049Y-11897975D02*
X14696049Y-11917023D01*
X14829382Y-11717023D02*
X14848430Y-11717023D01*
X14848430Y-11717023D02*
X14867477Y-11726547D01*
X14867477Y-11726547D02*
X14877001Y-11736070D01*
X14877001Y-11736070D02*
X14886525Y-11755118D01*
X14886525Y-11755118D02*
X14896049Y-11793213D01*
X14896049Y-11793213D02*
X14896049Y-11840832D01*
X14896049Y-11840832D02*
X14886525Y-11878927D01*
X14886525Y-11878927D02*
X14877001Y-11897975D01*
X14877001Y-11897975D02*
X14867477Y-11907499D01*
X14867477Y-11907499D02*
X14848430Y-11917023D01*
X14848430Y-11917023D02*
X14829382Y-11917023D01*
X14829382Y-11917023D02*
X14810334Y-11907499D01*
X14810334Y-11907499D02*
X14800811Y-11897975D01*
X14800811Y-11897975D02*
X14791287Y-11878927D01*
X14791287Y-11878927D02*
X14781763Y-11840832D01*
X14781763Y-11840832D02*
X14781763Y-11793213D01*
X14781763Y-11793213D02*
X14791287Y-11755118D01*
X14791287Y-11755118D02*
X14800811Y-11736070D01*
X14800811Y-11736070D02*
X14810334Y-11726547D01*
X14810334Y-11726547D02*
X14829382Y-11717023D01*
X15077001Y-11717023D02*
X14981763Y-11717023D01*
X14981763Y-11717023D02*
X14972239Y-11812261D01*
X14972239Y-11812261D02*
X14981763Y-11802737D01*
X14981763Y-11802737D02*
X15000811Y-11793213D01*
X15000811Y-11793213D02*
X15048430Y-11793213D01*
X15048430Y-11793213D02*
X15067477Y-11802737D01*
X15067477Y-11802737D02*
X15077001Y-11812261D01*
X15077001Y-11812261D02*
X15086525Y-11831308D01*
X15086525Y-11831308D02*
X15086525Y-11878927D01*
X15086525Y-11878927D02*
X15077001Y-11897975D01*
X15077001Y-11897975D02*
X15067477Y-11907499D01*
X15067477Y-11907499D02*
X15048430Y-11917023D01*
X15048430Y-11917023D02*
X15000811Y-11917023D01*
X15000811Y-11917023D02*
X14981763Y-11907499D01*
X14981763Y-11907499D02*
X14972239Y-11897975D01*
X15277001Y-11917023D02*
X15162715Y-11917023D01*
X15219858Y-11917023D02*
X15219858Y-11717023D01*
X15219858Y-11717023D02*
X15200811Y-11745594D01*
X15200811Y-11745594D02*
X15181763Y-11764642D01*
X15181763Y-11764642D02*
X15162715Y-11774166D01*
X15353192Y-11736070D02*
X15362715Y-11726547D01*
X15362715Y-11726547D02*
X15381763Y-11717023D01*
X15381763Y-11717023D02*
X15429382Y-11717023D01*
X15429382Y-11717023D02*
X15448430Y-11726547D01*
X15448430Y-11726547D02*
X15457953Y-11736070D01*
X15457953Y-11736070D02*
X15467477Y-11755118D01*
X15467477Y-11755118D02*
X15467477Y-11774166D01*
X15467477Y-11774166D02*
X15457953Y-11802737D01*
X15457953Y-11802737D02*
X15343668Y-11917023D01*
X15343668Y-11917023D02*
X15467477Y-11917023D01*
X15543668Y-11717023D02*
X15543668Y-11755118D01*
X15619858Y-11717023D02*
X15619858Y-11755118D01*
X15882715Y-11993213D02*
X15873192Y-11983689D01*
X15873192Y-11983689D02*
X15854144Y-11955118D01*
X15854144Y-11955118D02*
X15844620Y-11936070D01*
X15844620Y-11936070D02*
X15835096Y-11907499D01*
X15835096Y-11907499D02*
X15825573Y-11859880D01*
X15825573Y-11859880D02*
X15825573Y-11821785D01*
X15825573Y-11821785D02*
X15835096Y-11774166D01*
X15835096Y-11774166D02*
X15844620Y-11745594D01*
X15844620Y-11745594D02*
X15854144Y-11726547D01*
X15854144Y-11726547D02*
X15873192Y-11697975D01*
X15873192Y-11697975D02*
X15882715Y-11688451D01*
X16063668Y-11917023D02*
X15949382Y-11917023D01*
X16006525Y-11917023D02*
X16006525Y-11717023D01*
X16006525Y-11717023D02*
X15987477Y-11745594D01*
X15987477Y-11745594D02*
X15968430Y-11764642D01*
X15968430Y-11764642D02*
X15949382Y-11774166D01*
X16244620Y-11717023D02*
X16149382Y-11717023D01*
X16149382Y-11717023D02*
X16139858Y-11812261D01*
X16139858Y-11812261D02*
X16149382Y-11802737D01*
X16149382Y-11802737D02*
X16168430Y-11793213D01*
X16168430Y-11793213D02*
X16216049Y-11793213D01*
X16216049Y-11793213D02*
X16235096Y-11802737D01*
X16235096Y-11802737D02*
X16244620Y-11812261D01*
X16244620Y-11812261D02*
X16254144Y-11831308D01*
X16254144Y-11831308D02*
X16254144Y-11878927D01*
X16254144Y-11878927D02*
X16244620Y-11897975D01*
X16244620Y-11897975D02*
X16235096Y-11907499D01*
X16235096Y-11907499D02*
X16216049Y-11917023D01*
X16216049Y-11917023D02*
X16168430Y-11917023D01*
X16168430Y-11917023D02*
X16149382Y-11907499D01*
X16149382Y-11907499D02*
X16139858Y-11897975D01*
X16459858Y-11917023D02*
X16459858Y-11717023D01*
X16545573Y-11917023D02*
X16545573Y-11812261D01*
X16545573Y-11812261D02*
X16536049Y-11793213D01*
X16536049Y-11793213D02*
X16517001Y-11783689D01*
X16517001Y-11783689D02*
X16488430Y-11783689D01*
X16488430Y-11783689D02*
X16469382Y-11793213D01*
X16469382Y-11793213D02*
X16459858Y-11802737D01*
X16669382Y-11917023D02*
X16650334Y-11907499D01*
X16650334Y-11907499D02*
X16640811Y-11897975D01*
X16640811Y-11897975D02*
X16631287Y-11878927D01*
X16631287Y-11878927D02*
X16631287Y-11821785D01*
X16631287Y-11821785D02*
X16640811Y-11802737D01*
X16640811Y-11802737D02*
X16650334Y-11793213D01*
X16650334Y-11793213D02*
X16669382Y-11783689D01*
X16669382Y-11783689D02*
X16697954Y-11783689D01*
X16697954Y-11783689D02*
X16717001Y-11793213D01*
X16717001Y-11793213D02*
X16726525Y-11802737D01*
X16726525Y-11802737D02*
X16736049Y-11821785D01*
X16736049Y-11821785D02*
X16736049Y-11878927D01*
X16736049Y-11878927D02*
X16726525Y-11897975D01*
X16726525Y-11897975D02*
X16717001Y-11907499D01*
X16717001Y-11907499D02*
X16697954Y-11917023D01*
X16697954Y-11917023D02*
X16669382Y-11917023D01*
X16850335Y-11917023D02*
X16831287Y-11907499D01*
X16831287Y-11907499D02*
X16821763Y-11888451D01*
X16821763Y-11888451D02*
X16821763Y-11717023D01*
X17002716Y-11907499D02*
X16983668Y-11917023D01*
X16983668Y-11917023D02*
X16945573Y-11917023D01*
X16945573Y-11917023D02*
X16926525Y-11907499D01*
X16926525Y-11907499D02*
X16917001Y-11888451D01*
X16917001Y-11888451D02*
X16917001Y-11812261D01*
X16917001Y-11812261D02*
X16926525Y-11793213D01*
X16926525Y-11793213D02*
X16945573Y-11783689D01*
X16945573Y-11783689D02*
X16983668Y-11783689D01*
X16983668Y-11783689D02*
X17002716Y-11793213D01*
X17002716Y-11793213D02*
X17012239Y-11812261D01*
X17012239Y-11812261D02*
X17012239Y-11831308D01*
X17012239Y-11831308D02*
X16917001Y-11850356D01*
X17088430Y-11907499D02*
X17107477Y-11917023D01*
X17107477Y-11917023D02*
X17145573Y-11917023D01*
X17145573Y-11917023D02*
X17164620Y-11907499D01*
X17164620Y-11907499D02*
X17174144Y-11888451D01*
X17174144Y-11888451D02*
X17174144Y-11878927D01*
X17174144Y-11878927D02*
X17164620Y-11859880D01*
X17164620Y-11859880D02*
X17145573Y-11850356D01*
X17145573Y-11850356D02*
X17117001Y-11850356D01*
X17117001Y-11850356D02*
X17097954Y-11840832D01*
X17097954Y-11840832D02*
X17088430Y-11821785D01*
X17088430Y-11821785D02*
X17088430Y-11812261D01*
X17088430Y-11812261D02*
X17097954Y-11793213D01*
X17097954Y-11793213D02*
X17117001Y-11783689D01*
X17117001Y-11783689D02*
X17145573Y-11783689D01*
X17145573Y-11783689D02*
X17164620Y-11793213D01*
X17240811Y-11993213D02*
X17250335Y-11983689D01*
X17250335Y-11983689D02*
X17269382Y-11955118D01*
X17269382Y-11955118D02*
X17278906Y-11936070D01*
X17278906Y-11936070D02*
X17288430Y-11907499D01*
X17288430Y-11907499D02*
X17297954Y-11859880D01*
X17297954Y-11859880D02*
X17297954Y-11821785D01*
X17297954Y-11821785D02*
X17288430Y-11774166D01*
X17288430Y-11774166D02*
X17278906Y-11745594D01*
X17278906Y-11745594D02*
X17269382Y-11726547D01*
X17269382Y-11726547D02*
X17250335Y-11697975D01*
X17250335Y-11697975D02*
X17240811Y-11688451D01*
M02*
