%TF.GenerationSoftware,KiCad,Pcbnew,(7.0.0)*%
%TF.CreationDate,2023-06-13T12:49:34+03:00*%
%TF.ProjectId,C3 pico Breakout PCB,43332070-6963-46f2-9042-7265616b6f75,rev?*%
%TF.SameCoordinates,Original*%
%TF.FileFunction,Drillmap*%
%TF.FilePolarity,Positive*%
%FSLAX45Y45*%
G04 Gerber Fmt 4.5, Leading zero omitted, Abs format (unit mm)*
G04 Created by KiCad (PCBNEW (7.0.0)) date 2023-06-13 12:49:34*
%MOMM*%
%LPD*%
G01*
G04 APERTURE LIST*
%ADD10C,0.100000*%
%ADD11C,0.200000*%
%ADD12C,0.350000*%
G04 APERTURE END LIST*
D10*
X12422953Y-10502944D02*
X12422958Y-6536557D01*
X17495444Y-10934545D02*
G75*
G03*
X17926028Y-10502522I-1444J432025D01*
G01*
X12422955Y-10502944D02*
G75*
G03*
X12854978Y-10933528I432025J1444D01*
G01*
X12853542Y-6104531D02*
G75*
G03*
X12422958Y-6536557I1448J-432029D01*
G01*
X17928047Y-6544555D02*
X17926028Y-10502522D01*
X17495444Y-10934547D02*
X12854978Y-10933528D01*
X12853542Y-6104531D02*
X17500458Y-6113468D01*
X17928572Y-6544554D02*
G75*
G03*
X17500458Y-6113469I-432552J-1446D01*
G01*
D11*
D12*
X12750000Y-10265000D02*
X13100000Y-10615000D01*
X13100000Y-10265000D02*
X12750000Y-10615000D01*
X12800000Y-6455000D02*
X13150000Y-6805000D01*
X13150000Y-6455000D02*
X12800000Y-6805000D01*
X17225000Y-10237500D02*
X17575000Y-10587500D01*
X17575000Y-10237500D02*
X17225000Y-10587500D01*
X17267500Y-6462500D02*
X17617500Y-6812500D01*
X17617500Y-6462500D02*
X17267500Y-6812500D01*
D11*
X12665572Y-11233023D02*
X12665572Y-11033023D01*
X12665572Y-11033023D02*
X12713191Y-11033023D01*
X12713191Y-11033023D02*
X12741763Y-11042547D01*
X12741763Y-11042547D02*
X12760810Y-11061594D01*
X12760810Y-11061594D02*
X12770334Y-11080642D01*
X12770334Y-11080642D02*
X12779858Y-11118737D01*
X12779858Y-11118737D02*
X12779858Y-11147309D01*
X12779858Y-11147309D02*
X12770334Y-11185404D01*
X12770334Y-11185404D02*
X12760810Y-11204451D01*
X12760810Y-11204451D02*
X12741763Y-11223499D01*
X12741763Y-11223499D02*
X12713191Y-11233023D01*
X12713191Y-11233023D02*
X12665572Y-11233023D01*
X12865572Y-11233023D02*
X12865572Y-11099689D01*
X12865572Y-11137785D02*
X12875096Y-11118737D01*
X12875096Y-11118737D02*
X12884620Y-11109213D01*
X12884620Y-11109213D02*
X12903668Y-11099689D01*
X12903668Y-11099689D02*
X12922715Y-11099689D01*
X12989382Y-11233023D02*
X12989382Y-11099689D01*
X12989382Y-11033023D02*
X12979858Y-11042547D01*
X12979858Y-11042547D02*
X12989382Y-11052070D01*
X12989382Y-11052070D02*
X12998906Y-11042547D01*
X12998906Y-11042547D02*
X12989382Y-11033023D01*
X12989382Y-11033023D02*
X12989382Y-11052070D01*
X13113191Y-11233023D02*
X13094144Y-11223499D01*
X13094144Y-11223499D02*
X13084620Y-11204451D01*
X13084620Y-11204451D02*
X13084620Y-11033023D01*
X13217953Y-11233023D02*
X13198906Y-11223499D01*
X13198906Y-11223499D02*
X13189382Y-11204451D01*
X13189382Y-11204451D02*
X13189382Y-11033023D01*
X13414144Y-11233023D02*
X13414144Y-11033023D01*
X13414144Y-11033023D02*
X13480810Y-11175880D01*
X13480810Y-11175880D02*
X13547477Y-11033023D01*
X13547477Y-11033023D02*
X13547477Y-11233023D01*
X13728429Y-11233023D02*
X13728429Y-11128261D01*
X13728429Y-11128261D02*
X13718906Y-11109213D01*
X13718906Y-11109213D02*
X13699858Y-11099689D01*
X13699858Y-11099689D02*
X13661763Y-11099689D01*
X13661763Y-11099689D02*
X13642715Y-11109213D01*
X13728429Y-11223499D02*
X13709382Y-11233023D01*
X13709382Y-11233023D02*
X13661763Y-11233023D01*
X13661763Y-11233023D02*
X13642715Y-11223499D01*
X13642715Y-11223499D02*
X13633191Y-11204451D01*
X13633191Y-11204451D02*
X13633191Y-11185404D01*
X13633191Y-11185404D02*
X13642715Y-11166356D01*
X13642715Y-11166356D02*
X13661763Y-11156832D01*
X13661763Y-11156832D02*
X13709382Y-11156832D01*
X13709382Y-11156832D02*
X13728429Y-11147309D01*
X13823668Y-11099689D02*
X13823668Y-11299689D01*
X13823668Y-11109213D02*
X13842715Y-11099689D01*
X13842715Y-11099689D02*
X13880810Y-11099689D01*
X13880810Y-11099689D02*
X13899858Y-11109213D01*
X13899858Y-11109213D02*
X13909382Y-11118737D01*
X13909382Y-11118737D02*
X13918906Y-11137785D01*
X13918906Y-11137785D02*
X13918906Y-11194927D01*
X13918906Y-11194927D02*
X13909382Y-11213975D01*
X13909382Y-11213975D02*
X13899858Y-11223499D01*
X13899858Y-11223499D02*
X13880810Y-11233023D01*
X13880810Y-11233023D02*
X13842715Y-11233023D01*
X13842715Y-11233023D02*
X13823668Y-11223499D01*
X14004620Y-11213975D02*
X14014144Y-11223499D01*
X14014144Y-11223499D02*
X14004620Y-11233023D01*
X14004620Y-11233023D02*
X13995096Y-11223499D01*
X13995096Y-11223499D02*
X14004620Y-11213975D01*
X14004620Y-11213975D02*
X14004620Y-11233023D01*
X14004620Y-11109213D02*
X14014144Y-11118737D01*
X14014144Y-11118737D02*
X14004620Y-11128261D01*
X14004620Y-11128261D02*
X13995096Y-11118737D01*
X13995096Y-11118737D02*
X14004620Y-11109213D01*
X14004620Y-11109213D02*
X14004620Y-11128261D01*
X12217953Y-11479547D02*
X12417953Y-11679547D01*
X12417953Y-11479547D02*
X12217953Y-11679547D01*
X12646525Y-11453023D02*
X12770334Y-11453023D01*
X12770334Y-11453023D02*
X12703668Y-11529213D01*
X12703668Y-11529213D02*
X12732239Y-11529213D01*
X12732239Y-11529213D02*
X12751287Y-11538737D01*
X12751287Y-11538737D02*
X12760810Y-11548261D01*
X12760810Y-11548261D02*
X12770334Y-11567308D01*
X12770334Y-11567308D02*
X12770334Y-11614927D01*
X12770334Y-11614927D02*
X12760810Y-11633975D01*
X12760810Y-11633975D02*
X12751287Y-11643499D01*
X12751287Y-11643499D02*
X12732239Y-11653023D01*
X12732239Y-11653023D02*
X12675096Y-11653023D01*
X12675096Y-11653023D02*
X12656049Y-11643499D01*
X12656049Y-11643499D02*
X12646525Y-11633975D01*
X12856049Y-11633975D02*
X12865572Y-11643499D01*
X12865572Y-11643499D02*
X12856049Y-11653023D01*
X12856049Y-11653023D02*
X12846525Y-11643499D01*
X12846525Y-11643499D02*
X12856049Y-11633975D01*
X12856049Y-11633975D02*
X12856049Y-11653023D01*
X13046525Y-11453023D02*
X12951287Y-11453023D01*
X12951287Y-11453023D02*
X12941763Y-11548261D01*
X12941763Y-11548261D02*
X12951287Y-11538737D01*
X12951287Y-11538737D02*
X12970334Y-11529213D01*
X12970334Y-11529213D02*
X13017953Y-11529213D01*
X13017953Y-11529213D02*
X13037001Y-11538737D01*
X13037001Y-11538737D02*
X13046525Y-11548261D01*
X13046525Y-11548261D02*
X13056049Y-11567308D01*
X13056049Y-11567308D02*
X13056049Y-11614927D01*
X13056049Y-11614927D02*
X13046525Y-11633975D01*
X13046525Y-11633975D02*
X13037001Y-11643499D01*
X13037001Y-11643499D02*
X13017953Y-11653023D01*
X13017953Y-11653023D02*
X12970334Y-11653023D01*
X12970334Y-11653023D02*
X12951287Y-11643499D01*
X12951287Y-11643499D02*
X12941763Y-11633975D01*
X13179858Y-11453023D02*
X13198906Y-11453023D01*
X13198906Y-11453023D02*
X13217953Y-11462547D01*
X13217953Y-11462547D02*
X13227477Y-11472070D01*
X13227477Y-11472070D02*
X13237001Y-11491118D01*
X13237001Y-11491118D02*
X13246525Y-11529213D01*
X13246525Y-11529213D02*
X13246525Y-11576832D01*
X13246525Y-11576832D02*
X13237001Y-11614927D01*
X13237001Y-11614927D02*
X13227477Y-11633975D01*
X13227477Y-11633975D02*
X13217953Y-11643499D01*
X13217953Y-11643499D02*
X13198906Y-11653023D01*
X13198906Y-11653023D02*
X13179858Y-11653023D01*
X13179858Y-11653023D02*
X13160810Y-11643499D01*
X13160810Y-11643499D02*
X13151287Y-11633975D01*
X13151287Y-11633975D02*
X13141763Y-11614927D01*
X13141763Y-11614927D02*
X13132239Y-11576832D01*
X13132239Y-11576832D02*
X13132239Y-11529213D01*
X13132239Y-11529213D02*
X13141763Y-11491118D01*
X13141763Y-11491118D02*
X13151287Y-11472070D01*
X13151287Y-11472070D02*
X13160810Y-11462547D01*
X13160810Y-11462547D02*
X13179858Y-11453023D01*
X13370334Y-11453023D02*
X13389382Y-11453023D01*
X13389382Y-11453023D02*
X13408430Y-11462547D01*
X13408430Y-11462547D02*
X13417953Y-11472070D01*
X13417953Y-11472070D02*
X13427477Y-11491118D01*
X13427477Y-11491118D02*
X13437001Y-11529213D01*
X13437001Y-11529213D02*
X13437001Y-11576832D01*
X13437001Y-11576832D02*
X13427477Y-11614927D01*
X13427477Y-11614927D02*
X13417953Y-11633975D01*
X13417953Y-11633975D02*
X13408430Y-11643499D01*
X13408430Y-11643499D02*
X13389382Y-11653023D01*
X13389382Y-11653023D02*
X13370334Y-11653023D01*
X13370334Y-11653023D02*
X13351287Y-11643499D01*
X13351287Y-11643499D02*
X13341763Y-11633975D01*
X13341763Y-11633975D02*
X13332239Y-11614927D01*
X13332239Y-11614927D02*
X13322715Y-11576832D01*
X13322715Y-11576832D02*
X13322715Y-11529213D01*
X13322715Y-11529213D02*
X13332239Y-11491118D01*
X13332239Y-11491118D02*
X13341763Y-11472070D01*
X13341763Y-11472070D02*
X13351287Y-11462547D01*
X13351287Y-11462547D02*
X13370334Y-11453023D01*
X13522715Y-11653023D02*
X13522715Y-11519689D01*
X13522715Y-11538737D02*
X13532239Y-11529213D01*
X13532239Y-11529213D02*
X13551287Y-11519689D01*
X13551287Y-11519689D02*
X13579858Y-11519689D01*
X13579858Y-11519689D02*
X13598906Y-11529213D01*
X13598906Y-11529213D02*
X13608430Y-11548261D01*
X13608430Y-11548261D02*
X13608430Y-11653023D01*
X13608430Y-11548261D02*
X13617953Y-11529213D01*
X13617953Y-11529213D02*
X13637001Y-11519689D01*
X13637001Y-11519689D02*
X13665572Y-11519689D01*
X13665572Y-11519689D02*
X13684620Y-11529213D01*
X13684620Y-11529213D02*
X13694144Y-11548261D01*
X13694144Y-11548261D02*
X13694144Y-11653023D01*
X13789382Y-11653023D02*
X13789382Y-11519689D01*
X13789382Y-11538737D02*
X13798906Y-11529213D01*
X13798906Y-11529213D02*
X13817953Y-11519689D01*
X13817953Y-11519689D02*
X13846525Y-11519689D01*
X13846525Y-11519689D02*
X13865572Y-11529213D01*
X13865572Y-11529213D02*
X13875096Y-11548261D01*
X13875096Y-11548261D02*
X13875096Y-11653023D01*
X13875096Y-11548261D02*
X13884620Y-11529213D01*
X13884620Y-11529213D02*
X13903668Y-11519689D01*
X13903668Y-11519689D02*
X13932239Y-11519689D01*
X13932239Y-11519689D02*
X13951287Y-11529213D01*
X13951287Y-11529213D02*
X13960811Y-11548261D01*
X13960811Y-11548261D02*
X13960811Y-11653023D01*
X14318906Y-11443499D02*
X14147477Y-11700642D01*
X14543668Y-11453023D02*
X14562715Y-11453023D01*
X14562715Y-11453023D02*
X14581763Y-11462547D01*
X14581763Y-11462547D02*
X14591287Y-11472070D01*
X14591287Y-11472070D02*
X14600811Y-11491118D01*
X14600811Y-11491118D02*
X14610334Y-11529213D01*
X14610334Y-11529213D02*
X14610334Y-11576832D01*
X14610334Y-11576832D02*
X14600811Y-11614927D01*
X14600811Y-11614927D02*
X14591287Y-11633975D01*
X14591287Y-11633975D02*
X14581763Y-11643499D01*
X14581763Y-11643499D02*
X14562715Y-11653023D01*
X14562715Y-11653023D02*
X14543668Y-11653023D01*
X14543668Y-11653023D02*
X14524620Y-11643499D01*
X14524620Y-11643499D02*
X14515096Y-11633975D01*
X14515096Y-11633975D02*
X14505572Y-11614927D01*
X14505572Y-11614927D02*
X14496049Y-11576832D01*
X14496049Y-11576832D02*
X14496049Y-11529213D01*
X14496049Y-11529213D02*
X14505572Y-11491118D01*
X14505572Y-11491118D02*
X14515096Y-11472070D01*
X14515096Y-11472070D02*
X14524620Y-11462547D01*
X14524620Y-11462547D02*
X14543668Y-11453023D01*
X14696049Y-11633975D02*
X14705572Y-11643499D01*
X14705572Y-11643499D02*
X14696049Y-11653023D01*
X14696049Y-11653023D02*
X14686525Y-11643499D01*
X14686525Y-11643499D02*
X14696049Y-11633975D01*
X14696049Y-11633975D02*
X14696049Y-11653023D01*
X14896049Y-11653023D02*
X14781763Y-11653023D01*
X14838906Y-11653023D02*
X14838906Y-11453023D01*
X14838906Y-11453023D02*
X14819858Y-11481594D01*
X14819858Y-11481594D02*
X14800811Y-11500642D01*
X14800811Y-11500642D02*
X14781763Y-11510166D01*
X14962715Y-11453023D02*
X15086525Y-11453023D01*
X15086525Y-11453023D02*
X15019858Y-11529213D01*
X15019858Y-11529213D02*
X15048430Y-11529213D01*
X15048430Y-11529213D02*
X15067477Y-11538737D01*
X15067477Y-11538737D02*
X15077001Y-11548261D01*
X15077001Y-11548261D02*
X15086525Y-11567308D01*
X15086525Y-11567308D02*
X15086525Y-11614927D01*
X15086525Y-11614927D02*
X15077001Y-11633975D01*
X15077001Y-11633975D02*
X15067477Y-11643499D01*
X15067477Y-11643499D02*
X15048430Y-11653023D01*
X15048430Y-11653023D02*
X14991287Y-11653023D01*
X14991287Y-11653023D02*
X14972239Y-11643499D01*
X14972239Y-11643499D02*
X14962715Y-11633975D01*
X15153192Y-11453023D02*
X15286525Y-11453023D01*
X15286525Y-11453023D02*
X15200811Y-11653023D01*
X15391287Y-11538737D02*
X15372239Y-11529213D01*
X15372239Y-11529213D02*
X15362715Y-11519689D01*
X15362715Y-11519689D02*
X15353192Y-11500642D01*
X15353192Y-11500642D02*
X15353192Y-11491118D01*
X15353192Y-11491118D02*
X15362715Y-11472070D01*
X15362715Y-11472070D02*
X15372239Y-11462547D01*
X15372239Y-11462547D02*
X15391287Y-11453023D01*
X15391287Y-11453023D02*
X15429382Y-11453023D01*
X15429382Y-11453023D02*
X15448430Y-11462547D01*
X15448430Y-11462547D02*
X15457953Y-11472070D01*
X15457953Y-11472070D02*
X15467477Y-11491118D01*
X15467477Y-11491118D02*
X15467477Y-11500642D01*
X15467477Y-11500642D02*
X15457953Y-11519689D01*
X15457953Y-11519689D02*
X15448430Y-11529213D01*
X15448430Y-11529213D02*
X15429382Y-11538737D01*
X15429382Y-11538737D02*
X15391287Y-11538737D01*
X15391287Y-11538737D02*
X15372239Y-11548261D01*
X15372239Y-11548261D02*
X15362715Y-11557785D01*
X15362715Y-11557785D02*
X15353192Y-11576832D01*
X15353192Y-11576832D02*
X15353192Y-11614927D01*
X15353192Y-11614927D02*
X15362715Y-11633975D01*
X15362715Y-11633975D02*
X15372239Y-11643499D01*
X15372239Y-11643499D02*
X15391287Y-11653023D01*
X15391287Y-11653023D02*
X15429382Y-11653023D01*
X15429382Y-11653023D02*
X15448430Y-11643499D01*
X15448430Y-11643499D02*
X15457953Y-11633975D01*
X15457953Y-11633975D02*
X15467477Y-11614927D01*
X15467477Y-11614927D02*
X15467477Y-11576832D01*
X15467477Y-11576832D02*
X15457953Y-11557785D01*
X15457953Y-11557785D02*
X15448430Y-11548261D01*
X15448430Y-11548261D02*
X15429382Y-11538737D01*
X15543668Y-11453023D02*
X15543668Y-11491118D01*
X15619858Y-11453023D02*
X15619858Y-11491118D01*
X15882715Y-11729213D02*
X15873192Y-11719689D01*
X15873192Y-11719689D02*
X15854144Y-11691118D01*
X15854144Y-11691118D02*
X15844620Y-11672070D01*
X15844620Y-11672070D02*
X15835096Y-11643499D01*
X15835096Y-11643499D02*
X15825573Y-11595880D01*
X15825573Y-11595880D02*
X15825573Y-11557785D01*
X15825573Y-11557785D02*
X15835096Y-11510166D01*
X15835096Y-11510166D02*
X15844620Y-11481594D01*
X15844620Y-11481594D02*
X15854144Y-11462547D01*
X15854144Y-11462547D02*
X15873192Y-11433975D01*
X15873192Y-11433975D02*
X15882715Y-11424451D01*
X16044620Y-11519689D02*
X16044620Y-11653023D01*
X15997001Y-11443499D02*
X15949382Y-11586356D01*
X15949382Y-11586356D02*
X16073192Y-11586356D01*
X16269382Y-11653023D02*
X16269382Y-11453023D01*
X16355096Y-11653023D02*
X16355096Y-11548261D01*
X16355096Y-11548261D02*
X16345573Y-11529213D01*
X16345573Y-11529213D02*
X16326525Y-11519689D01*
X16326525Y-11519689D02*
X16297953Y-11519689D01*
X16297953Y-11519689D02*
X16278906Y-11529213D01*
X16278906Y-11529213D02*
X16269382Y-11538737D01*
X16478906Y-11653023D02*
X16459858Y-11643499D01*
X16459858Y-11643499D02*
X16450334Y-11633975D01*
X16450334Y-11633975D02*
X16440811Y-11614927D01*
X16440811Y-11614927D02*
X16440811Y-11557785D01*
X16440811Y-11557785D02*
X16450334Y-11538737D01*
X16450334Y-11538737D02*
X16459858Y-11529213D01*
X16459858Y-11529213D02*
X16478906Y-11519689D01*
X16478906Y-11519689D02*
X16507477Y-11519689D01*
X16507477Y-11519689D02*
X16526525Y-11529213D01*
X16526525Y-11529213D02*
X16536049Y-11538737D01*
X16536049Y-11538737D02*
X16545573Y-11557785D01*
X16545573Y-11557785D02*
X16545573Y-11614927D01*
X16545573Y-11614927D02*
X16536049Y-11633975D01*
X16536049Y-11633975D02*
X16526525Y-11643499D01*
X16526525Y-11643499D02*
X16507477Y-11653023D01*
X16507477Y-11653023D02*
X16478906Y-11653023D01*
X16659858Y-11653023D02*
X16640811Y-11643499D01*
X16640811Y-11643499D02*
X16631287Y-11624451D01*
X16631287Y-11624451D02*
X16631287Y-11453023D01*
X16812239Y-11643499D02*
X16793192Y-11653023D01*
X16793192Y-11653023D02*
X16755096Y-11653023D01*
X16755096Y-11653023D02*
X16736049Y-11643499D01*
X16736049Y-11643499D02*
X16726525Y-11624451D01*
X16726525Y-11624451D02*
X16726525Y-11548261D01*
X16726525Y-11548261D02*
X16736049Y-11529213D01*
X16736049Y-11529213D02*
X16755096Y-11519689D01*
X16755096Y-11519689D02*
X16793192Y-11519689D01*
X16793192Y-11519689D02*
X16812239Y-11529213D01*
X16812239Y-11529213D02*
X16821763Y-11548261D01*
X16821763Y-11548261D02*
X16821763Y-11567308D01*
X16821763Y-11567308D02*
X16726525Y-11586356D01*
X16897954Y-11643499D02*
X16917001Y-11653023D01*
X16917001Y-11653023D02*
X16955096Y-11653023D01*
X16955096Y-11653023D02*
X16974144Y-11643499D01*
X16974144Y-11643499D02*
X16983668Y-11624451D01*
X16983668Y-11624451D02*
X16983668Y-11614927D01*
X16983668Y-11614927D02*
X16974144Y-11595880D01*
X16974144Y-11595880D02*
X16955096Y-11586356D01*
X16955096Y-11586356D02*
X16926525Y-11586356D01*
X16926525Y-11586356D02*
X16907477Y-11576832D01*
X16907477Y-11576832D02*
X16897954Y-11557785D01*
X16897954Y-11557785D02*
X16897954Y-11548261D01*
X16897954Y-11548261D02*
X16907477Y-11529213D01*
X16907477Y-11529213D02*
X16926525Y-11519689D01*
X16926525Y-11519689D02*
X16955096Y-11519689D01*
X16955096Y-11519689D02*
X16974144Y-11529213D01*
X17050335Y-11729213D02*
X17059858Y-11719689D01*
X17059858Y-11719689D02*
X17078906Y-11691118D01*
X17078906Y-11691118D02*
X17088430Y-11672070D01*
X17088430Y-11672070D02*
X17097954Y-11643499D01*
X17097954Y-11643499D02*
X17107477Y-11595880D01*
X17107477Y-11595880D02*
X17107477Y-11557785D01*
X17107477Y-11557785D02*
X17097954Y-11510166D01*
X17097954Y-11510166D02*
X17088430Y-11481594D01*
X17088430Y-11481594D02*
X17078906Y-11462547D01*
X17078906Y-11462547D02*
X17059858Y-11433975D01*
X17059858Y-11433975D02*
X17050335Y-11424451D01*
X17379858Y-11729213D02*
X17370335Y-11719689D01*
X17370335Y-11719689D02*
X17351287Y-11691118D01*
X17351287Y-11691118D02*
X17341763Y-11672070D01*
X17341763Y-11672070D02*
X17332239Y-11643499D01*
X17332239Y-11643499D02*
X17322716Y-11595880D01*
X17322716Y-11595880D02*
X17322716Y-11557785D01*
X17322716Y-11557785D02*
X17332239Y-11510166D01*
X17332239Y-11510166D02*
X17341763Y-11481594D01*
X17341763Y-11481594D02*
X17351287Y-11462547D01*
X17351287Y-11462547D02*
X17370335Y-11433975D01*
X17370335Y-11433975D02*
X17379858Y-11424451D01*
X17456049Y-11519689D02*
X17456049Y-11653023D01*
X17456049Y-11538737D02*
X17465573Y-11529213D01*
X17465573Y-11529213D02*
X17484620Y-11519689D01*
X17484620Y-11519689D02*
X17513192Y-11519689D01*
X17513192Y-11519689D02*
X17532239Y-11529213D01*
X17532239Y-11529213D02*
X17541763Y-11548261D01*
X17541763Y-11548261D02*
X17541763Y-11653023D01*
X17665573Y-11653023D02*
X17646525Y-11643499D01*
X17646525Y-11643499D02*
X17637001Y-11633975D01*
X17637001Y-11633975D02*
X17627477Y-11614927D01*
X17627477Y-11614927D02*
X17627477Y-11557785D01*
X17627477Y-11557785D02*
X17637001Y-11538737D01*
X17637001Y-11538737D02*
X17646525Y-11529213D01*
X17646525Y-11529213D02*
X17665573Y-11519689D01*
X17665573Y-11519689D02*
X17694144Y-11519689D01*
X17694144Y-11519689D02*
X17713192Y-11529213D01*
X17713192Y-11529213D02*
X17722716Y-11538737D01*
X17722716Y-11538737D02*
X17732239Y-11557785D01*
X17732239Y-11557785D02*
X17732239Y-11614927D01*
X17732239Y-11614927D02*
X17722716Y-11633975D01*
X17722716Y-11633975D02*
X17713192Y-11643499D01*
X17713192Y-11643499D02*
X17694144Y-11653023D01*
X17694144Y-11653023D02*
X17665573Y-11653023D01*
X17789382Y-11519689D02*
X17865573Y-11519689D01*
X17817954Y-11453023D02*
X17817954Y-11624451D01*
X17817954Y-11624451D02*
X17827477Y-11643499D01*
X17827477Y-11643499D02*
X17846525Y-11653023D01*
X17846525Y-11653023D02*
X17865573Y-11653023D01*
X18052239Y-11519689D02*
X18052239Y-11719689D01*
X18052239Y-11529213D02*
X18071287Y-11519689D01*
X18071287Y-11519689D02*
X18109382Y-11519689D01*
X18109382Y-11519689D02*
X18128430Y-11529213D01*
X18128430Y-11529213D02*
X18137954Y-11538737D01*
X18137954Y-11538737D02*
X18147477Y-11557785D01*
X18147477Y-11557785D02*
X18147477Y-11614927D01*
X18147477Y-11614927D02*
X18137954Y-11633975D01*
X18137954Y-11633975D02*
X18128430Y-11643499D01*
X18128430Y-11643499D02*
X18109382Y-11653023D01*
X18109382Y-11653023D02*
X18071287Y-11653023D01*
X18071287Y-11653023D02*
X18052239Y-11643499D01*
X18261763Y-11653023D02*
X18242716Y-11643499D01*
X18242716Y-11643499D02*
X18233192Y-11624451D01*
X18233192Y-11624451D02*
X18233192Y-11453023D01*
X18423668Y-11653023D02*
X18423668Y-11548261D01*
X18423668Y-11548261D02*
X18414144Y-11529213D01*
X18414144Y-11529213D02*
X18395097Y-11519689D01*
X18395097Y-11519689D02*
X18357001Y-11519689D01*
X18357001Y-11519689D02*
X18337954Y-11529213D01*
X18423668Y-11643499D02*
X18404620Y-11653023D01*
X18404620Y-11653023D02*
X18357001Y-11653023D01*
X18357001Y-11653023D02*
X18337954Y-11643499D01*
X18337954Y-11643499D02*
X18328430Y-11624451D01*
X18328430Y-11624451D02*
X18328430Y-11605404D01*
X18328430Y-11605404D02*
X18337954Y-11586356D01*
X18337954Y-11586356D02*
X18357001Y-11576832D01*
X18357001Y-11576832D02*
X18404620Y-11576832D01*
X18404620Y-11576832D02*
X18423668Y-11567308D01*
X18490335Y-11519689D02*
X18566525Y-11519689D01*
X18518906Y-11453023D02*
X18518906Y-11624451D01*
X18518906Y-11624451D02*
X18528430Y-11643499D01*
X18528430Y-11643499D02*
X18547477Y-11653023D01*
X18547477Y-11653023D02*
X18566525Y-11653023D01*
X18709382Y-11643499D02*
X18690335Y-11653023D01*
X18690335Y-11653023D02*
X18652239Y-11653023D01*
X18652239Y-11653023D02*
X18633192Y-11643499D01*
X18633192Y-11643499D02*
X18623668Y-11624451D01*
X18623668Y-11624451D02*
X18623668Y-11548261D01*
X18623668Y-11548261D02*
X18633192Y-11529213D01*
X18633192Y-11529213D02*
X18652239Y-11519689D01*
X18652239Y-11519689D02*
X18690335Y-11519689D01*
X18690335Y-11519689D02*
X18709382Y-11529213D01*
X18709382Y-11529213D02*
X18718906Y-11548261D01*
X18718906Y-11548261D02*
X18718906Y-11567308D01*
X18718906Y-11567308D02*
X18623668Y-11586356D01*
X18890335Y-11653023D02*
X18890335Y-11453023D01*
X18890335Y-11643499D02*
X18871287Y-11653023D01*
X18871287Y-11653023D02*
X18833192Y-11653023D01*
X18833192Y-11653023D02*
X18814144Y-11643499D01*
X18814144Y-11643499D02*
X18804620Y-11633975D01*
X18804620Y-11633975D02*
X18795097Y-11614927D01*
X18795097Y-11614927D02*
X18795097Y-11557785D01*
X18795097Y-11557785D02*
X18804620Y-11538737D01*
X18804620Y-11538737D02*
X18814144Y-11529213D01*
X18814144Y-11529213D02*
X18833192Y-11519689D01*
X18833192Y-11519689D02*
X18871287Y-11519689D01*
X18871287Y-11519689D02*
X18890335Y-11529213D01*
X18966525Y-11729213D02*
X18976049Y-11719689D01*
X18976049Y-11719689D02*
X18995097Y-11691118D01*
X18995097Y-11691118D02*
X19004620Y-11672070D01*
X19004620Y-11672070D02*
X19014144Y-11643499D01*
X19014144Y-11643499D02*
X19023668Y-11595880D01*
X19023668Y-11595880D02*
X19023668Y-11557785D01*
X19023668Y-11557785D02*
X19014144Y-11510166D01*
X19014144Y-11510166D02*
X19004620Y-11481594D01*
X19004620Y-11481594D02*
X18995097Y-11462547D01*
X18995097Y-11462547D02*
X18976049Y-11433975D01*
X18976049Y-11433975D02*
X18966525Y-11424451D01*
M02*
